<svg baseProfile="tiny" xmlns="http://www.w3.org/2000/svg" width="1024" height="512" viewBox="0 0 1024 512">
	<path fill="url(#pa)" stroke="#000" stroke-miterlimit="10" d="M68 156.4c2.4-7.6 10.1-15.7 15.1-22.1 10.7-14 20.9-27.7 32.1-41.3 10.3-12.6 20.2-26 28.6-40 7.5-12.4 13.8-27.3 23.3-38.1 6.5 14.3 19.5 24 28.2 36.8 5.8 8.5 8.5 13.1 16.5 19.6 6.4 5.1 9.8 11.7 17.1 15.7 6.7 3.7 14.2 6.4 21.6 7.4 19.1 2.7 41.2.4 60.3.9 20.3.5 37.2 3.3 56.8 8 26.5 6.4 52.4-1 78.2-6.4 29.7-6.2 60.7-13 91.2-13.2-2.2 1.7-1.3 5.2-1.3 9 0 11.1-.2 15.9-5.2 26.1-7 14.2-14.2 28.5-22.8 41.9-8.1 12.5-20.1 24.7-25.8 38.4-5.5 13-2.3 30.8-2.3 44.6.1 39.9-8.5 95.2-48 116.4-18.4 9.8-41.9 17.7-61.9 23.6-24.5 7.2-50.4 13.1-75.3 18.2-40.7 8.3-85.4 11.3-126.7 7.1-22.8-2.3-46-14.5-65.6-26.4-28.8-17.4-47.9-53.5-55.7-85.3-8.4-34.3-.1-68.2 8.5-101 3.1-11.8 11.3-47.3 26.4-48.8M159.7 196.9c-7.1-8.8 14.2-30.4 22.3-35.8 10.8-7.2 26.5-14.6 39.6-16.1 9.1-1 12.3-.9 15.8 6.9 4.4 9.8 3.6 27.5-1.3 36.7-11.6 21.9-29.7 41.4-56.7 40.6-11.4-.3-16.4-9.3-18-20.6-2.1-14.9 7.6-19.2 13.1-31.5M338.2 226.6c-2.1-6.3-.4-12.2 3.5-17.6 4.1-5.6 10.4-10.6 14.8-16.4 7-9.4 14.3-20.1 24.5-26.3 7.7-4.7 19.4-9.4 28.7-7.6 12.2 2.4 13.1 20.6 12.2 31.8-1.9 23.1-19.6 51.7-38.6 64.9-5.6 3.9-19.7 11.3-27.5 6.9-6.2-3.5-8.7-19.4-10.7-26.1-4.1-13.5-2.9-25.1 3.9-37.7M163 169.6c-5.8 8.3-14.2 27.9-13.2 38.6 1.2 13.1 10.9 14.7 22.4 15.1 15.7.5 26-3.4 38.8-13 11.9-8.8 37.3-32.9 35.5-49.6-2.2-19.9-52.7-.7-61.1 8.7-8.9 10-25.3 48.2-4.2 55.4 19.1 6.5 13.2-23 11.6-31.9-2.7-15.7.4-18.5 14.1-26.1 11.9-6.5 19.3-11.5 33.2-10.4 9 16.6-13.2 50.2-23.7 61-9.7 10-32.7 20.8-45.4 10.6-15.9-12.9-2.8-31.6 6.5-42.8 2.2-2.7 46-44.3 47.5-27.2M349 200.2c10.5-18.6 25.3-35.7 47.8-38.9 9-1.3 13-.5 16.2 7.8 4.1 10.9 2.8 35.8-2.2 46.1-3.6 7.5-11.4 14-16 21.2-5.6 9-11 18-18.7 25.4-9.4 9-22.6 19.3-36.4 17.8-10.5-1.1-11.7-4-13.7-17.5-2.6-18.1 2.6-37.6 15.4-50.7 12.2-12.3 28-24.2 44.7-29.5 5.3-1.7 17.4-5.3 22.7-1.8 7.6 5 4.6 32.5 1.9 40.3-3 8.9-11.4 14.9-17.7 21.3-8 8.1-14.6 17.2-26.2 19.8-18.9 4.3-23.7-3.9-25.4-21.4-2.5-27 6.9-52.5 29.3-69.2 9.9-7.4 34.7-18.3 46.4-9.7 14.7 10.9 3 42.7-4.3 54.6-8.2 13.2-32.2 43.1-50.6 37.2"/>

	<pattern id="pa" x="0.05" y="0.05" width=".25" height=".25">
            
	<path fill="#0ff" d="M7.8 55c1.7-.8 1.7-3.3 3.3-4.1C4.5 46.7-2.1 39.3.4 30.2 2 23.6 12 14.5 16.1 23.6c-.8-19.8 19-31.4 23.1-8.3 7.4-2.5 12.4-17.4 24-14.9C70.6 2.1 72.3 9.5 69 17c11.6-2.5 23.1-2.5 23.1 12.4.8 8.3-3.3 12.4-11.6 14C97 42.6 62.3 74.8 64.8 50c0-.8 1.7-.8 1.7-.8 4.1 18.2-33.9 26.4-31.4 10.7-9.9 3.3-31.4 5.8-27.3-11.6"/><g fill="#B420B1">
	<path d="M8.5 48.5c0-.2-.3-.1-.3.3l.3.4v-.7zM7.4 51.5c.1.6.4 1.2.7.8-.3-.5-.2-.7-.5-1.3 0-.5.2-.8.3-.7-.1-.2.2-.7 0-1-.4.5-.5 1.3-.3 2.2-.1.2-.1.1-.2 0zM41.8 68.5l-.3-.1s.1 0 .3.1zM66.6 56.3c-.1.2-.1.3-.1.3.1-.2.2-.3.1-.3zM67.8 51.2v.3-.3zM41.8 68.5s.2.1.4.1.4.1.4.1c0-.1-.5-.1-.8-.2zM9.4 57.2c0-.2-.1-.2-.2-.3l.2.3zM34 61h-.1c-.1.1-.1.1-.1.2l.2-.2zM25 62.9c.2 0 .3-.3.3-.4-.1.1-.3.2-.5.2.1 0 .1.1.2.2zM10 59.5l-.2-.2.2.2zM36.2 66.3v.1-.1zM7.4 46.3c-.1 0-.1 0 0 0 0 .1 0 .1 0 0zM7.8 54.9l.1-.1c0-.1 0-.1-.1-.2v.3zM63.6 55.1c0-.1 0-.1 0 0-.1-.3-.1-.2 0 0zM73.4 15c1 .1-1.5.5 0 .6-.2-.1 1.2-.6 0-.6zM9.5 57.4c.1.1.1.2.2.3 0-.2-.1-.3-.2-.3zM73.4 15.6h.1-.1zM81.9 53.8c-.1 0-.2 0-.2.1 0 0 .1-.1.2-.1zM67.4 59.8l.4.2c-.2-.1-.3-.2-.4-.2zM85.8 46.2c0-.3.1-.3 0-.7v.1c.1.1.1.3 0 .6zM83 43.6h-.2c-.1 0-.2.1-.3.1l.5-.1zM4.1 25.5c-.2.1-.3.1-.4.1.3 0-.4 1 .4-.1zM9.3 57.2c.1 0 .1 0 .2.1 0 0-.1-.1-.2-.1zM83.6 45.9v-.3c0-.1-.1-.2-.1-.2.1.1.1.2.1.5zM37.9 14.5l-.1-.5c0 .2.1.4.1.5zM81 44.8c-.1-.1-.3-.1-.4-.1L69 42.1l11.2.1h.3l.1-.1h-.4L69 43l11.6 1.7.4.1zM3.7 25.6zM1.5 33.2c.1-1.1-.3-.6-.5-.8.1-1.4.4-.6.7-1 .1-.9-.1-1.6.2-2.2.1 0 .1-.1.2 0 0-.5.3-1.1.7-1.7.3-.6.7-1.2.9-1.8.1 0 .1-.1.2-.1-.3 0-.4-.1-.5-.2.3-.4.4-1 .8-1-.2.3-.2.3-.2.5l.3-.5c.6-.2-.4.7-.2.8.6-.9 1.3-2.1 2-2.6.3.1-1.4 1.4-.3.9 0 0-.3.2-.5.4s-.5.4-.5.4c.8-.2-.8.7.2.5.6-.6.9-.9 1.2-1.3.3-.3.6-.7 1.3-1.1.2-.4-.3-.2-.1-.5.9-.8 1.5-.7 1.9-.7.4.1.7.1 1.4-.2.2-.1.3-.3.5-.4.1-.1.3-.1.4-.1.2 0 .4.1.6.2 0 0-.5.3-.4.3.3.1.5.1.7.2H13.1c.1 0 .1 0 .3.1.3.3.6.4 1.1 1.5-.1-.1-.3-.3-.4-.6-.2-.2-.4-.3-.5-.5-.2-.1-.3-.3-.4-.3-.1 0-.1 0 0 0 .3.4.6.7.8.9l.3.3c.1.1.1.2.2.2.1.1.2.2.4.3.1.1.3.4.6 1l.5 1.6c.4.8.9 1.6 1.3 2.5v-1.6c0-.8-.1-1.6-.1-2.4 0-.8-.1-1.6-.1-2.3v-2.2c.1.2.1.8.3 0 0-.4 0-.7.1-1.1 0-.3.1-.6.1-1 .1-.3.1-.6.2-1l.3-.9c.4-1.3.9-2.4 1.5-3.5l.1-.9c.1-.2.3-.3.2-.1.5-.8-.1-.1 0-.6.2-.5.5-.5.4-.2.3-.8.8-1.8 1.5-2.8.6-.7 1.5-1.6 2.2-2l-.2.3c.5-.4.7-.7 1-1 .1-.2.2-.3.4-.4.2-.1.4-.2.7-.3l-.2.2c1.3-.6 2.7-1 4-.9 1.3.1 2.5.7 3.2 1.5.1 0 .3.1.6.2.2.2.5.4.7.7.2.3.4.5.6.7.2.2.3.3.5.2.4.7.4 1.1.5 1.4.1.4.3.8.6 1.9.2.6.7.7 1 1.5l-.3.1.6.9-.2.6s.1.2.1.3l.2.6c-.1-.6-.1-.8 0-.8.1.2.2.8.3 1.2l.3 1.5c0 .3.1.5.1.7v.1H39.2s.3-.1.7-.3c.2-.1.4-.2.7-.3.3-.1.5-.3.8-.5l.4-.2c.1-.1.2-.1.2-.2.1-.1.3-.2.4-.3.2-.2.4-.3.4-.3 0 .1-.4.5-.7.8 1.2-1.2.5.1 1.5-1.1-.2.1 0-.2-.1-.3.7-.3 1.9-1.5 2.6-2.4v.3c1.5-1.5 2.9-3.4 4.5-5-.6.4-.7 0-.3-.5h.4c.2-.5-.6.4-.1-.4.7-.5.7-.1.4.3l.7-.8c.1 0 0 .2 0 .4.2-.5 1.5-.9 1.7-1.6h.1c1.7-1.3 2.5-1.9 4.1-2.5-.1-.3.6-.4 1.1-.7 1.3-.2 2.7 0 4.2.3 1.1.2.4-.1.9-.2 0 .2 1.4.8.6.7.8.3 1.3.6 1.9.9.5.4 1.1.7 1.8 1.6-.1-.3-.2-.5 0-.5.3.5.5 1 .3 1l-.1-.1c.9 1 1.2 2.6 1.1 4 0 1.5-.4 2.8-.3 3.9v-.1s-.1.6-.1 1.1c-.2.9-.4 1.7-.4 1.7-.3.8-.3.6-.3.3s.1-.6-.3 0c-.2 1-.6 1.8-.8 2.6 1.4-.3 2.5-.5 3.8-.7l1.5-.3c.4-.1.7-.2 1.1-.3.8.3 2.2.1 3.7-.1.7-.1 1.5-.1 2.2-.1.7 0 1.3.1 1.8.3l-.1-.2c.6-.1.6.2 1 .3 0-.1-.5-.3-.2-.3 2.2.2 4.5 1.1 5.9 2.8 1.5 1.6 2.1 3.8 2.4 6.1.1.8.4 1 .6 1.3.2.3.4.6.2 1.7l-.4-.6.1.9v.1c.3 1.6.2 3.2-.1 4.6-.3 1.5-1 2.8-1.8 4 .1-.2 0-.3.2-.5-.3.2-.7.6-1 1-.4.4-.7.7-.6.8-.4.3-.2-.1-.5 0-.6.3-1.3 1.1-1.8 1.1-.1 0 .1-.1.3-.2-.2.1-.7.4-1 .5-.4.2-.7.3-.4.3-1.2.3-2.3.8-3.3.9-.1.1-.1.1-.2.1l.3 2.3c.3-.1.8 0 1.2 0 .4 0 .7.1.8-.1-.1.2.4.4.7.6.3.2.5.4.6.7-.1-.1-.1.4-.3.3 0 .6-.2 1.3.1 1.3-.5.6-.8 1.3-1.1 2-.3.7-.7 1.2-1.3 1.4-1.6 2.2-3.4 4.1-5.5 5.5-.1-.2.5-.6 1-1s1-.8.8-1c-1.7 1.6-2.7 2.7-4.9 3.5-.6.2.2-.3.4-.5-2 1.1-4.2 1.3-5.6.6 0 0 .2 0 .4.1-.3-.1-.5-.5-.7-.3l.3.2c.1.3-.2.3-.7 0-.4-.2-.8-.7-.9-.6.4.1.2-.3.1-.7-.1-.4-.2-.8.4-.5-.1-.2-.3-.5-.4-.4-.1-.4 0-.5.2-.2-.2-.6-.3-.9-.4-1.1-.1-.2-.2-.4-.2-1.1.1 0 .2.3.3.4-.2-.6-.5-1.3-.3-2.5.1.1.1-.1.1.3v-1.3c0-.1.1-.2.2-.3.2-.1.4-.2.7-.2-.2-.1-.4-.3-.5-.4.1.3.1.6.2 1 .1.3.1.7.1 1.1-.4-.6-.1.7-.5.8v1.1l.2-.4c-.1 1 0 1.9-.4 2.7l.1-.7s0 .1-.1.3c0 .2-.1.4-.2.6-.2.4-.3.9-.3.9l.5-.9c-.2 1 .5.1-.1 1.3.1-.3-.5.9-1 1.2-.2.5-.4 1-.9 1.5-.2.1-.2-.4-.4-.3 0 .3-.4.8-.8 1.2-.4.4-.8.9-1 1.2.1-.2 0-.3-.1-.3l-.2.5c-.4.2-.5.2-.5.1-1.1.8.7.1-.8 1 .1-.1 0-.1.2-.3-1.4.9-2.7 1.9-4.2 2.5-.6-.1 1.2-.7.6-.7-1.9 1.1-4.1 2.2-6.3 2.6l.4-.1c-.2.6-1.7.1-2.7.5.3-.1.3-.3.2-.3-1.5.1-3 .5-5.3.5l.3-.1c-.9-.2-2.3-.4-3.1-.7-.3.1-.8-.2-.6.1-1.2-.9-2.3-1.5-3.1-2.5-.2-.3-.3-.5-.5-.8l-.3-.9c-.1-.1-.1-.3-.1-.5v-1.2c0-.2.1-.5.1-.7 0 .4.1 1 .1.6v-2h-.1l-.1.1c-.2.1-.4.1-.5.2-.3.1-.5.2-.5.2.1.2.3 0 .7.1-.5.3-1.2.6-1.7.8.5-.2.6-.4.4-.4h-.9c.1 0-.1.2 0 .2-1.3-.1-.1.5-1.7.6l.1-.1c-.6.2-1.1.5-1.7.6-.3-.2.6-.3.6-.5-.9.2-1.7.9-2.5.7.4-.1.9-.2 1.3-.4-.9-.1-1-.1-1.7 0h.1l-1.5.1h.4c-1 .8-2.3.4-3.8.9 1.5-.5.2-.3.3-.6-.4-.1-1-.1-.8-.2-.7.3-1.2-.2-2.2.2 0-.1-.8-.1-.6-.3-.9 0 .2.2.1.3-1.5.2-3.3-.7-5.3-.9-1.7-.4-2.1-.3-3.6-1.1-.4-.5.6 0 .6 0-.2-.2-.3-.3-.5-.4l-.4-.4c-.3-.2-.5-.5-.8-.8.2.1.1-.1.1-.4-.2-.3-.3-.3-.4-.4-.1-.1-.3-.2-.4-.6.2.1.4.2.6.4-.2-.3-.4-.6-.7-.9-.2-.3-.4-.7-.5-1.1.1-.2.4.4.6.6-.7-.6-.9-2-1.2-2.3v.6c0-.3.2-.2.3 0 .3.7.1 1.1 0 1.2l-.2-.6c-.1.2-.1.4-.1.7 0 .3.2.6.3.9.3.6.8 1.2 1.1 1.7 0 0-.2 0-.3-.1-.2-.1-.3-.1-.3-.1s.2.2.5.4c0 .2.2.2.3.3.1.1.2.1.2.1.1.3 0 .6-.4.1.4.8.6.5 1 1.2 0 .1 0 .1-.1 0l.8.4c-.2 0-.1.3-.5 0 1.2 1.2 2.3 1 2.7 1.5h-.1c1 .3 1.1.3 1.1.1 0-.1 0-.2.8-.2 0 0 .2.3.4.5s.4.5.4.5l.3-.3c.2.1.6.1.5.3.8-.1-.1-.2.4-.3 1 .5 2.9.2 3.1.6.4-.2-1-.2.1-.3.3.5 1.3-.1 2.3.1-.3.3-1.2.2-.2.4.6-.5 1.9 0 2.7-.2 0-.4 1.8-.3 3.1-.7-.1.2 2.6-.3 3.8-.5v.1c.1-.2.4-.4.9-.5.5-.2.8-.3 1.2-.4-.1.3-.3.4-.5.6l.5-.1c.1-.1.2-.2.3-.2.1 0 .1-.1.2-.1 0 0 .1 0 .1-.1h.1v.1l-.1.1-.2.2h.1v.4c0 .1 0 .3.1.5 0 .1.1.6.1.9l.3 1.2c.1 0 .2-.4.3-.5.1-.1.1-.1.2 0s.2.3.4.6c-.1.1-.3.3-.5-.1.1.1.3.4.4.7l-.5-.7c.2.7.3.3.6.8-.2.1.2.4 0 .4-.1-.1-.1-.2-.2-.3-.1-.1-.1-.3-.2-.4.1.3.3.6.5.9.2.3.3.6.4.7 0-.1.2-.2.6.1.5.4.6.5.5.6 0 .1-.1.1.2.4.2 0 .4.2.6.3.2.1.4.1.5 0 .3.1.3.3.5.4.3.1 1.1.3 1.6.4.6.1 1 .1.7-.1l-.2-.1h.1c2.1.1 4.3.5 6.3.1v.1c1.2-.2 2.7-.5 3.4-.9.3-.1.9-.1.7.1.9-.4.9-.4 2.2-.8-.8.5.4 0-.9.5 1.2-.3 1.5-.3 2.6-1-.3.4 1-.1 1.5-.4l-.8.2c.6-.3 1.1-.6 1.6-.8l-.1.4c1.2-.4 2.1-1.2 2.9-1.9.8-.8 1.5-1.4 2.4-1.9.3-.6-1.1.8-.9.2.4-.4 1-.7 1.4-1 .4-.3.8-.5.9-.7.6-.6.7-1 .8-1.4.1-.4.2-.8.7-1.5-.2.1-.5.2-.1-1 .5-1 1-1.2.8-.4-.1.3-.2.4-.2.4-.1.4-.2.9 0 .5v-.2c.2-.3.4-.8.6-1.2.1-.4.3-.7.3-.5.1-.9-.1-.4-.3.2.3-.7.5-1.3.5-1.9 0-.3.1-.6.1-.9v-1.1c-.1.3-.2.5-.2.2.1-1.2-.1-1.4-.2-1.6-.1-.1-.2-.2-.4-.9v-.2l.1-.3-.6-.2c-.3-.1-.2-.2-.2-.2s-.3-.1-1.2.2c-.6.2-.7.3-.6.1.1-.2.4-.4.7-.6-.4.2-.8.4-1.1.7-.3.3-.4.7-.4 1.1-.1.7-.2.9-.2 1.2-.1.3-.1.6-.1.8l-.1-.8V52l.2-.4c0 .4 0 .8-.1.8.2.5.4-.4.6.5-.1.6.3 1.7.1 2-.2-1.9-.3.3-.6-1.3.1.3.1.7.2 1.2 0 .1-.1-.1-.1-.2 0 1 .2 1.2.4 1.3.2.2.4.4.8 1.3-.1-.1-.2.1-.1.3.1.2.2.5.3.6-.5-.8 0-.5.6 0 .4.6.7.8 1 .9.3.1.5.2.8.3l-.7-.4c.3 0 .9.4 1.7.5 0 .2-.8-.1-.5 0 .5 0 1 .1 1.6.2.6.1 1.2.1 1.9-.1.6 0 .1.3.7.3 1.3-.7 1.6-.3 2.9-1.1-.5 0-.5.1.3-.6l-1 .6c-.5.3-1.1.6-1.1.6s.3-.2.7-.5c.3-.2.6-.5.6-.5-.6.3-1.4.8-1.8.9.6-.4.6-.4.2-.4 1.1 0 1.7-1 2.8-1.3l.3.5c1.6-.7 2.4-1.9 4.2-3.3l-.6.4c.1-.4 1-.9 1.5-1.5.1.2.5-.1.8-.2-.1-.1 1.1-1.2 1-1.6 0 0 .2-.2.4-.3.2-.2.4-.3.4-.3.6-.7.8-1.2.9-1.7.1-.5.3-1 .6-1.8 0 .6.5-.1.1 1.1.3-.5.5-1.1.4-1.1.1-.1.2-.6.2-1.1 0-.5 0-1 .1-1.3-.1-.3-.3-.4-.6-1.1 0-.1.1 0 .1 0l-.4-.4c-.2-.1-.3-.2-.2.1-.3-.6-1-1.1-1.8-1.2-.8-.2-1.6-.2-2.4-.1 0 .4.1.7.1 1 .8-.2 1.6-.3 2.2-.3 1.2-.4 2.6-1 3.6-1.5 0 .1 0 .1-.2.2 1.5-.6.6-.9 2.2-1.8.5-.2.3 0 .1.2-.2.2-.5.4-.2.3.3.2.7-.2 1.2-.7.2-.3.5-.6.7-.8.2-.3.5-.6.7-.8l-.2.6c.8-.7 1.1-2.1 1.6-3.6 0 0 0 .1.1 0 0-1.1.2-3.1 0-4.5.2.4.1.7.4.4 0-.7-.4.2-.5-1.1.1-.2.1-.6.2-.9.1-.3.1-.5.3-.6v.6-.1.6c.1-.2.1-.4.1-.7v.1c0-.5-.2-1.1-.2-1.6l.2.1c0-.5-.1-.8-.1-1.1-.1-.3-.2-.5-.3-.8-.2-.5-.3-1-.6-2v.4c-.7-.9-.1-1-.7-1.9l.2-.5c-.2-.3-.6-.9-1-1.4-.2-.3-.5-.5-.8-.8-.1-.1-.2-.3-.4-.4-.1-.1-.3-.2-.4-.3.4.1.8.5 1.3 1 .2.2.5.4.6.7.2.2.3.5.5.7-.2-.7-1.4-2.2-1.8-2.3l.7.7c-.4-.3-.8-.6-1.3-1-.2-.2-.5-.4-.7-.6l-.9-.6c.3-.2-.4-.9-1.5-1.3-.5-.3-1.1-.4-1.6-.6-.5-.2-.9-.4-1.2-.6-2.6-.2-5.1-.6-8.1-.3 1.1.5-.8.1-.6.7-.7.1-.9.1-1 .1h-1.9c-.1-.1 0-.1 0-.2h.2c.1 0 .1-.1.1-.1h-.4v-.1c0-.1 0-.2.1-.3-.1.2-.3.4-.3.3 0 0-.1.1-.1.2v.1c-.3.2-.5.2-.5.1.1-.2.3-.4.4-.5.1-.1.2-.2.1-.4 0 0 .1.2.2.1v-.2c.1-.4.2-.9.3-1.4.1-.5.1-1.1.1-1.5 0-.5-.1-.9-.2-1.2.1-.2.3-.5.3 0 .1-1.4-.2-3-.7-4.3-.5-1.4-1.4-2.5-2-3.5l.3.1c-.4-.4-.8-.5-1.2-1 .1 0 .3 0 .1-.1-.1-.1-.5-.2-.8-.5-.4-.2-.8-.4-1.1-.6l.6.2c-.3-.2-.6-.4-.8-.5-.3-.1-.6-.2-.8-.3-.5-.2-1-.3-1.5-.3-1-.1-1.9-.1-3 0 0-.2-.5-.4-1.2-.4-.7-.1-1.5 0-2 .1v-.1C56-.4 54.8.3 53.8 1c-1 .8-1.9 1.6-2.9 2.6-.8.3-1.9 1.3-2.9 2.4-1.1 1.1-2.2 2.4-3.2 3.2.3-.2.2.3-.1.7-.5.4-1 1.4-1.2 1.1l.2-.1c-.6 0-1.4 1-2.1 1.5l.2.5c-.3.1-.6.3-.9.4l-.2.1h-.1l-.2.1c-.1 0-.2.1-.3.2-.1.1-.1 0-.1-.1l-.1-.2c0-.1-.1-.3-.1-.4-.1-.4-.2-.7-.3-1-.2-.6-.3-1.2-.2-1.6-.2-.3-.3-.6-.5-1-.2-.3-.4-.7-.6-.9l.3-.1c-.7-1.7-1.1-2.6-2.8-4.4l.5.2c-.4-.5-1-.7-1.4-.8-.4-.1-.9-.2-1.4-.5l-.1-.6c-1.1-.6-2.3-1-3.5-1.1-1.3-.1-2.5.2-3.5.7 0-.1 0-.2.4-.4-.3.1-.7.2-1.1.4-.4.2-.9.4-1.3.6-.8.5-1.3.9-.9 1.1-.1-.1-.6.2-1.1.7-.5.5-1 1.3-1.4 1.8l-.1-.3c-.4 1-.3 1.1-1.1 2.3-.2.3-.3.1 0-.2-.7.9-.3.8-1 1.9l.1-.5c-.6 1-.5 1-.5 1.6-.2.7-.9 1.9-1.2 2 .1.2.1.9-.2 1.5-.1.1-.1-.2-.1-.3-.8 1.8-.4 2.8-.9 4-.1 0-.1.1-.2.2.1-.7.3-1.4.3-1.9v-.6c-.2-.1-.6 1.1-.7.1v3.6h-.1v-.1.3c0 .1-.1.1-.1.2-.2-.3-.1.1-.1.2.3.8.1.4.4 1.3V20.8v.1-.7c.1.4.2 1 .1 1 .1.3.2.6.2.9 0 .1.1.3.1.4v.1c-.2-.5-.4-.9-.5-1.3-.4-.8-.6-1.3-.6-1.5l-.6-.3c-.5-.3-1.1-.5-1.7-.6-1.2-.2-2.2.2-2.7.6-.5.2-.7 0-.9 0 .3-.2.7-.3.8-.4-.5.2-1.3.5-1.9.9-.6.4-1.1.8-1.1 1-1.2.7.4-.7-1 .4l.1-.2c-1.6.9-2.5 2.2-3.2 3.6-.9 1.3-1.5 2.6-2.5 4.4.1-.3.2-.4.3-.4-.9 2.1-1.2 4.5-.9 6.9.3 2.3 1.1 4.5 2 6.6.6 1.2.9 1.1 1.4 1.7l-.1.4 1.1.8c1.4 1.2 1.7 2.9 3.8 4l-.1-.3c.3.3.9.7 1.3 1 .5.3.7.5.5.5.1 0 .3 0 .4.2l-.2.1.4.2.2.1c.1 0 0 .1-.1.1 0 .1-.1.1-.2.2l-.1.3-.3.3-.2.2H9c-.1-.1-.4.1-.9 1-.1.2-.2.4-.2.6-.1.2-.2.4-.2.6-.2.3-.3.5-.2.5.1-.1.3-.2.4-.2.1-.1.3-.1.3-.1s-.1.2-.2.3c-.1.1-.3.2-.3.2.1.2 0 .6.2.7.1.1.2.1.5 0 .1 0 .3-.1.5-.2s.4-.3.6-.5c0 0 .2-.4.3-.8.1-.3.2-.7.2-.7l.4-.3-.5 1c.5-.5.5-1 .6-1.4.2 0 .2 0 .7-.5.5-.6 1-1.1 1.5-1.4l-.4-.1c.1-.1.3 0 .5.1h.2s0-.1-.1-.1l-.3-.3c-.6-.3-.5-.1-.5 0s-.1.2-.8-.2c-.5-.6-.3-.6-1.3-1.2 0-.1 0-.1.1-.1s.3.1.5.2c-.1-.1-.3-.2-.4-.2-.1-.1-.2-.1-.3-.2-.2-.1-.3-.2-.5-.3-.2-.3-.5-.5-.7-.5-.4-.6-1.7-1.4-1.4-1.7-.2 0-1-.5-1.5-1 1.2.5-1.4-1.6-.8-1.7-.9-.3-1.8-2.2-2.7-3.3.1.1.2.2.2.3-.3-.7-.3-1-.4-1.5-.4.1-.9-1-1.3-1.6.1-1 .6.5.9.1-.2 0-.6-1.6-.7-1.2.1-.8 0-.6.3-1-.5-.1-.1-.6-.4-1.2.2-1 .4-.3.4-1.4.1-.6.2.4.2.4zM17 19.7v.9c-.1-.1-.1-.4 0-.9zm.3-2.4c-.1.3-.1.6-.2 1-.1.1-.2 0-.1-.3 0 .1.2-.4.3-.7zM15 20c0-.2 0-.1 0 0 .1 0 .1.1.1.2v.1c0-.1 0-.2-.1-.3zM15.3 21v.1h.1c0-.1-.1-.2-.1-.3v.2zM41.4 68.3zM37 11.6h.1l-.2-.2zM33.1 60h-.2.2zM27.3 61.2h-.8.8zM22.9 61.5l-.1.1.1-.1zM67.9 58h.1c.3.1.1 0-.1 0zM64.5 58.1c.1-.2.1-.4.2-.6-.2.3-.3.5-.2.6zM83.6 46v-.1zM65.2 56.7c-.2.3-.4.6-.5.8.2-.3.4-.6.5-.8zM8.3 53.8v-.2.2zM8.2 53.5l-.1-.2c.1.1.1.2.1.2zM8.1 52.8l.1.5c0-.2-.1-.4-.1-.5zM10.5 58.5h.1-.1zM11.9 59.5c-.2-.1-.4-.3-.5-.5-.2-.2-.4-.4-.6-.5h-.1c.1 0 .3.3.6.5.1.3.3.5.6.5zM18.7 62.7s-.4-.1-.8-.1c-.4-.1-.8-.1-.8-.1.3.1.6.3-.1.3 1.9.5-.3-.4 1.7-.1zM23.5 62.8c-.8.1 0 .2 0 .2.5-.1.6-.1 0-.2zM52.2 67.7v.3c.6-.3 0-.1 0-.3zM57.7 63.9s-.1 0-.3.1c-.2 0-.3.1-.3.1l-.1.3.4-.2.3-.3zM61.9 63.2l-.2.3.8-.8zM81.6 44.2l-.3-.2c-.4.1-.4.5.3.2zM92.3 24.2c.1-.3-.1-1.1-.3-1.4.1.5.2 1.1.3 1.4zM40.6 13.2l.3-.3-.3.3h-.1c0 .1.1.1.1 0z"/></g>
	<g fill="#B420B1">
	<path d="M34.1 47.7c-.1.1 0 .3.3.1l.1-.4-.4.3zM36 47.6c.2-.3.3-.7 0-.9-.1.4-.2.3-.3.9-.2.2-.5.1-.5 0-.1.1-.4.1-.5.3.4.1.9 0 1.2-.5.1 0 .1.1.1.2zM23.8 41.8v-.2.2zM37.7 47.3c-.1.1-.1.1-.1.2.1-.1.2-.2.1-.2zM40.1 45.3c0 .1-.1.1-.1.1.1 0 .1-.1.1-.1zM23.8 41.8l-.1.5c.1.1.1-.2.1-.5zM37.9 44.6v.2-.2zM29 36.4h.1s.1-.1.1-.2l-.2.2zM35.1 36.1c-.1 0-.3.2-.3.3.1-.1.2-.1.3-.1v-.2zM39.4 43.9v.2-.2zM25 38.3h-.1c0-.1.1 0 .1 0zM33.5 33zM30.1 37.6c-.1-.1-.1-.1-.2-.1l.2.1zM41.1 39.1c.1.2.1.1 0 0zM39.2 36.1c.6.3-.9.3-.1.6-.1-.1.8-.4.1-.6zM38 44.5c0-.1.1-.1.1-.2-.1.1-.1.2-.1.2zM39.1 36.7c.1 0 .1 0 0 0zM28.3 37.6h.2-.2zM38 37l-.2-.1c.1 0 .1.1.2.1zM25.8 42.2c-.1.1-.1.1-.1.3 0-.1 0-.2.1-.3zM26.3 47.6v-.1l-.1-.1c-.1 0 .1.2.1.2zM39.2 39.6c.1 0 .2.1.3.1-.2-.1.1-.5-.3-.1zM38 44.7v-.2.2zM27.8 43.1l-.2.6c.1-.2.1-.4.2-.6zM46.6 42.6v-.2.2zM27.6 45.3c-.1.1-.1.2-.1.3h.1c-.1.1-.1-.3 0-.3zM39.5 39.7zM39.2 36.5c.2.5.4.1.7.1.4.7-.2.4-.3.7.1.2.2.3.3.5.1.2.2.3.2.4-.1 0-.1.1-.2 0 .1.1.1.2.1.4 0 .1 0 .3-.1.4 0 .1-.1.1-.1.2s-.1.1-.1.2c-.1.1-.1.3-.2.4h-.1c.2.1.3.2.4.3-.2.2-.3.5-.5.4.2-.1.1-.2.1-.3l-.2.2c-.4-.2.3-.3.1-.5l-.6.6c-.3.2-.5.3-.8.3-.2-.3 1-.5.3-.5 0 0 .2 0 .3-.1.2 0 .3-.1.3-.1-.7-.2.3-.1-.3-.4-.7.2-.8.5-1.7.6-.2.2.1.3-.1.5-.5.2-.8.1-1 0 .2.5.5 1.1.7 1.6.4-.1.7.1 1-.5.1-.3-.1-.8.6-1v.5c.8-.4.2-.8 1.2-.9-.1.2-.6.4-.5.4.7 0 .3-.4.7-.6l.2.3c.9-.4 1.9-.8 2.9-.7-.1.1-.2.2 0 .3.6 0 1.3.2 1.6.6.3.4.2.7.1 1l.2.4c0 .1-.2.1-.2 0-.3.3.2.1.2.3-.1.2-.3.2-.3 0 0 .2-.2.5-.2.7 0 .1-.1.3-.2.4-.2.3-.5.5-.6.3l.1-.2h-.1s-.2.2-.3.2c-.1.1-.2 0-.1-.3h.1c0-.2 0-.5-.1-.7l-.1-.5c0-.1 0-.2-.1-.3v-.4h.2c.2 0 .4.1.5.2.1-.4 1.8-.1 1.8-.7 1 .1.9.2 1.1.4.1 0 .4-.3.5-.1l-.3.2.3.1s-.1.1-.2.1l-.2.2.1.4c0-.2.1-.4.2-.4.2.7-.1 1.6-.3 1.6 0 0 .1.4.1.8 0 .2 0 .4.1.5v.2c-.1 0-.1-.3-.2-.5.3.8-.3.1-.1.9.1-.1.2.1.2.1-.2.3-.4 1.1-.6 1.6l-.2-.2c-.4.8-.9 1.5-1.8 1.6.3 0 .4.4.1.5l.2-.3c-.2.2.3.1-.1.4-.4 0-.3-.4-.1-.5l-.5.1c0-.1.1-.1.1-.3-.2.2-.8-.4-1.1-.1v-.1c-1.1-.3-1.7-.5-2.5-1-.2.2-.5 0-.9 0-.6-.5-1.1-1.2-1.8-1.8-.6-.4-.3 0-.6-.1.1-.2-.5-.9 0-.6-.8-.8-1-1-1.8-2.1 0 .2 0 .3-.1.3-.2-.2-.2-.6 0-.6h.1c-.5-.6-.6-1.5-.4-2.1.2-.6.6-.7.8-1.2v.1l.1-.1.3-.3c.2-.2.5-.3.5-.3.5-.1-.2.3.2.3.5-.4 1.1-.5 1.6-.5s1 0 1.6-.1c.5.4 1.2.4 2.1.4h.6l-.1.1.2-.1c.2 0-.1.1-.2.2.1 0 .2-.1.3-.1V39.1c0 .3-.2.6-.3.9-.2.6-.6 1.2-1 1.7-.8 1.1-1.8 1.9-2.9 2.6-.8.5.1 1.1-1.2 1.4 0 0 0-.1.1-.2 0-.1.1-.2.1-.2-1.5 1.3-3.7 1.6-5.5 2 .1-.1.1-.2.3-.2-.4-.2-1.4 0-1.4.2-.3-.1 0-.2-.2-.3h-.9c-.2 0-.4 0-.4-.1h.2c-.3.1-.8-.4-.8-.1-.4-.4-.8-.6-.8-1.1-.2-.1-.2-.3-.2-.5s0-.4-.2-.5c.4.1.5-1 .4-1.5.1.2.3-.3.4-.1.1-.3.2-.6.2-.8v-.1c0-.1-.1-.2-.1-.2.2-.2.3-.3.4-.5.1-.2.2-.4.2-.6.1-.4.3-.7.7-.7.7-1.2 1.9-2 3.3-2.4 0 .4-1.4.4-1.2.9 1-.6 1.8-1.1 3.1-1 .3.1-.2.2-.3.3 1.3-.2 2.4.4 3.4.7h-.3c.2.1.4.3.5.1l-.2-.1c-.1-.2.2-.2.5-.2.3.1.7.2.7.1-.3.1-.1.3 0 .5.2.2.2.4-.3.5.1.1.3.1.4 0 .1.2.1.3-.2.2.5.5.5.2.8.8-.1 0-.2-.1-.3-.1.3.2.6.5.5 1.1-.1 0-.1 0-.1-.1 0 .9.2 1.9-.7 2.8-.2-.5-.3.3-.7.1l-.3.6.3-.1c-.3.4-.6.9-1 1.2l.2-.4-.4.4c-.2.2-.4.3-.4.3l.6-.2c-.4.5.3.3-.4.7.1-.1-.1 0-.3.1-.2.1-.5.2-.6.2-.2.3-.4.5-.9.6-.1-.1-.1-.4-.2-.5-.1.4-1.2.5-1.5.8.1-.1.1-.3 0-.3l-.2.3c-.3 0-.3-.1-.3-.3-.8 0 .3.5-.7.3.1 0 0-.1.2-.1-.9-.1-1.9 0-2.7-.5-.1-.4.8.2.6-.2-1.2-.3-2.6-.7-3.4-1.6l.1.2c-.5.3-.5-.8-1-1.1.1.1.3 0 .3 0-.4-.7-1.1-1.3-1.4-2.5l.2.1c0-.5 0-1.2.2-1.6-.1-.2 0-.4-.2-.3.6-.6 1-1.1 1.6-1.6.5-.5 1.2-1 2-.9-.2.1-.4.2-.2.2 0 0 .3-.1.6-.3l.6-.2c-.1-.2-.2-.1-.5-.2.1-.2.5-.4.8-.4-.5.3.1.3.4.5-.1-.1 0-.2 0-.2.8.3 0-.5 1-.3v.1c.3-.1.6-.3 1-.3.2.2-.4.2-.4.4.5-.1 1-.6 1.5-.3-.2.1-.5 0-.8.1.5.3.6.3.9.3l.8.2-.2-.1c.4-.3.7-.2 1-.1.4.1.7.3 1.2.3-1 0-.2.2-.4.4.2.2.4.4.3.4.4 0 .4.5 1 .6-.1.1.3.3 0 .4.4.3.1-.2.2-.3.2.1.3.2.5.4.1.2.2.4.3.7.1.2.1.5.2.7.1.2.2.5.4.7l.3.6c.1.2.1.3.2.5.1.3.3.6.2 1.1-.2.3-.3-.3-.3-.3-.3.5-.3.8-.4 1.3 0-.1-.1-.1-.3 0-.6.1-.2.1-.6.5 0-.1-.1-.3-.1-.5-.2.4-.2.9-.5 1.2-.2 0 0-.4 0-.6-.1.2-.3.4-.5.7-.2.2-.3.5-.3.6l.3-.1c-.1.1-.2-.1-.1-.2.2-.5.5-.4.6-.3l-.2.3c.7.2.9-1.1 1.2-1.6 0 0 .1.1.1.2.1.1.1.2.1.2v-.8c.2-.1.4-.1.3.2.4-.4.1-.5.4-.8h.1v-.5c.1.1.3 0 .2.3.3-.4.1-.9.1-1.2 0-.2-.1-.3-.1-.4 0-.1 0-.2.1-.3v.1c-.2-.7-.3-.7-.4-.6-.1 0-.2.1-.5-.3 0 0 .5-.8.5-.9H39c0-.1-.2-.4 0-.4-.4-.3-.1.1-.4 0 0-.7-1.2-1.3-.9-1.7-.3 0 .3.6-.3.2.2-.5-.7-.4-1-.9.3-.2.7.3.3-.3-.3.1-.5 0-.8-.2-.2-.2-.5-.4-.8-.4-.1.2-.3.1-.7.1-.4-.1-.8-.1-1.3-.1 0 0-.4-.2-.9-.2h-1.5v-.1c-.1.4-.9.4-1.4.6 0-.2.1-.3.4-.5l-.5.1c-.1.1-.3.2-.6.4l.1-.3c-.7.2-1.3.7-2.3 1 .1.2 1 .3.2.9-.1-.1-.3-.3-.1-.5-.1.1-.2.3-.4.3l.2-.4c-.3.2 0 .3-.3.5-.1-.2-.3 0-.3-.1s.3-.1.3-.3c-.4.2-.8.4-1 .4.1.1.2.2 0 .4-.5.6-.4.1-.7.4 0 .2-.4.6-.1.8-.2.2-.3.2-.4.3 0 .2-.2.7-.2 1.1 0 .4.1.6.2.4v-.1.1c.1.6.2 1.3.4 1.9.2.6.4 1.3.8 1.7v.1c.5.6 1.1 1.2 1.7 1.4.2.1.3.5.1.5.5.3.6.2 1.2.8-.6-.1.1.2-.6-.2.3.2.5.4.7.5.2.1.4.2.9.2-.4.1.4.5.8.5l-.5-.3c.4.1.7.2 1.1.3l-.3.3c.4.2.8.3 1.1.3.4 0 .7 0 1.1-.1.7-.1 1.2-.3 1.9-.1.4-.3-.9 0-.6-.3h1.1c.3 0 .6.1.7 0 1-.2.7-.8 1.6-1.2-.2 0-.4-.2.1-.7.6-.4 1-.1.7.2-.1.1-.2.1-.2.1-.2.2-.4.4-.1.3v-.2c.4-.1 1.1-.8 1.1-.5.3-.5 0-.3-.3-.1.8-.5 1.1-1 1.7-1.7-.1.1-.3.1-.2 0 .9-1.1.2-.6.6-1.5.4-.4.3.4.5-.6.3-.5.4 0 .3.2.1-1 .6-1.8.5-2.4l.1.6c0-.3-.1-.6-.1-.9l-.2.3c0-.3 0-.6.1-.6-.2-.3-.3.3-.7-.2 0-.2-.1-.5-.2-.7-.1-.2-.2-.4-.1-.6.3.6.3.5.4.4.1-.1.1-.2.4.3-.1-.2-.2-.4-.4-.7 0-.1.1 0 .1.1-.2-.6-.4-.7-.6-.7-.2 0-.4-.1-.8-.5.2 0 0-.5-.2-.5.4.3 0 .4-.4.2-.6-.5-.8-.3-1.1-.5l.4.3c-.2.1-.5-.1-1-.3 0-.2.4.1.3 0-.6.1-1.1-.8-1.9-.7-.3-.2 0-.3-.3-.5-.9.1-1-.4-1.9-.2.3.2.3.2-.3.4 0 0 .4-.1.7-.1.4 0 .8-.1.8-.1s-.3.2-.5.2c-.2.1-.5.2-.5.2.4 0 .9-.1 1.2-.1-.5.1-.4.1-.2.3-.6-.4-1.2.2-1.9 0v-.6c-1.2-.1-1.9.6-3.2 1.1 0 0 .4-.1.5-.1-.1.3-.8.4-1.1.8-.1-.2-.4-.1-.6-.1.1.1-.8.7-.6 1.1l-.6.3c-.4.4-.5.8-.5 1.1 0 .3 0 .7-.3 1.1-.1-.4-.4 0-.2-.7-.1.3-.3.6-.2.7 0 0-.1.1-.1.2v-.1c-.1.3-.1.9-.3 1.1 0 .2.2.3.1.7h-.1c.1 0 0 .6.3.3-.2.2-.3.5-.4.9 0 .4-.1.8 0 1.1.1.8.6 1.5.7 2 .6.7 1.6 1.1 2.2 1.3-.1 0 0 .1-.2 0 .5.3.6.1.8 0 .2-.1.4-.2.9 0 .5.4-.6.1-.3.3.1.7 1.3 0 2.1.3h-.2c.6.2 1.4-.4 2.2-.6v.1c.5-.5 1.6-.9 2.3-1.4-.1.3-.3.3 0 .5.3-.2-.3-.3.4-.7.3 0 .8-.1 1 .1l-.5.6c.5.1.8-.5 1.2-.6v.2c.5-.3.6-.6.8-.8.2-.2.4-.5.8-.9h-.2c.2-.7.5-.2.8-.9l.4.1c.1-.2.3-.5.5-.9s.4-.8.5-1.2c0 .5-.4 1.4-.7 1.9.3-.3.9-1.2.9-1.5-.1.2-.1.4-.3.5.1-.6.3-1.3.7-2 .3.2.6-.2.9-.9.1-.3.3-.6.4-1 .1-.2.1-.3.2-.5s.2-.3.3-.5c0-.6 0-1.1.1-1.7.2-.4-.3-.3-.5-.4-.3-.1-.6-.1-.9-.2-.5-.1-1.3-.2-1.6-.3-.4-.1-.8-.1-1.3-.1.6.6-.5 0-.4.6H39l-.6-.2-.6-.2c-.3-.2.4-.2.3-.3-.9 0-.4-.2-1.1-.3.2.2-.3.3-.9.4l.8.2c-.6.2-.9.2-1.3.1-.3-.1-.7-.1-1.3.3l.4-.4c-.3.2-1 .4-1.6 1-.6.5-1.1 1.3-1 1.8-.1.1-.4.3-.2-.1-.2.5-.3 1.1-.3 1.6s.2 1.1.3 1.5c.3.9.8 1.6 1 2.2h-.2c.2.3.5.3.6.7-.1 0-.2 0-.1.1s.7.5.9.8l-.3-.2c.9 1.4 1.9 1.5 3 2.2-.3.3.6 1.2 1.1 1.6h-.1c1.6 1 3 1.2 4.7 1.3.5.3 1.5.5 2.7.1 1.2-.3 2.2-1.3 2.8-2.1-.2.2-.3-.2-.2-.5.3-.4.1-1.2.5-1v.1c.5-.2.6-1.1.7-1.7l-.5-.2c.5-.8.4-1.9.3-2.9 0-.2-.1-.5-.1-.7 0-.2-.1-.4-.1-.7-.1-.6-.1-1.1 0-1.6-.1-.1-.1-.3-.1-.4V38.9h-.1c-.4.1-.7.1-1.1.2l.2-.3c-.5 0-.8 0-1.2.1-.2 0-.4 0-.5.1h-.5c-.4.1-.9.2-1.5.3l.2-.2c-.3.1-.5.3-.7.5-.1.1-.1.2-.3.4-.2.1-.3.2-.6.2l-.5-.4-.8.1h-.4c-.1 0-.3 0-.3.1l.1 1.6c0 .3.1.5.1.8l.1.4v.2l.2.7c.1.3.2.5.2.7-.1 0-.2 0-.3-.3.2 1 .6 4.5.9 3.1-.1.2-.1.4 0 .6.1 0 .3-.1.5-.3l.6-.6 1.1-1.1-.1.4c.3-.5.5-.8.6-1 .2-.2.3-.5.7-.9.2-.2.3 0 0 .2.4-.3.4-.4.4-.6 0-.2.1-.3.4-.7v.4c.4-.6.3-.7.2-1.1 0-.2.1-.6.2-.9.1-.3.2-.6.2-.7-.2-.1-.5-.5-.7-.9 0-.1.2 0 .3.1-.3-.7-.8-1-1.2-1.1-.4-.2-.8-.2-1.1-.5 0-.1 0-.2-.1-.2 1 .2 1.7.8 1.6.8.2-.2-.6-.8.2-.7-.8-.3-2-.3-2.8-.4l-.1-.1h.1-.5c-.2 0-.4-.1-.7-.1-.1-.2-.9 0-1.3.1.1.3-.4.3.1.5-.1 0 .1 0 .3-.1.1 0 .1 0 .2-.1.2 0 .6-.1 1-.1-.3.2-.6.3-1 .2-.2.2-.3.4-.4.5-.6-.3-1.6-.1-1.8-.3-1 .6-2.4 1.5-2.5 2.4-.2.3-.4.1-.5.2.1-.2.3-.3.3-.4-.1.2-.3.3-.4.5l-1.6 1.7 2.2-.4c.6-.1 1.2-.2 1.3-.5.8 0-.4.4.7.1l-.1.1c1.2.1 2.1-.6 2.7-1.4.6-.9 1-1.8 1.3-3.1 0 .2-.1.3-.1.3.1-.7 0-1.5-.3-2.2-.3-.7-.7-1.3-1.1-1.8-.9-1.1-2-2-3.1-2.8-.7-.5-.9-.2-1.4-.2l-.1-.3s-.2 0-.5.1c-.2.1-.4.1-.4.1H33.3c-.6.1-1.3.4-1.6 1.1h.3c-.2.2-.4.5-.6.8-.2.3-.3.5-.4.4 0 .1.1.2-.1.4l-.2-.1s-.1.3-.1.6c0 .2 0 .3-.1.4v.2c-.3.9-.6-.3-.9 1.1 0 .5.2 1.6.4 1.4 0-.2.2-.5.3-.5v.5c.4.1.9.5 1.4-.5l-.2-.8.3-.2-.1.6c.3-.3.1-.5.1-.8.1 0 .2-.1.3-.2 0 0-.1-.2-.1-.4s-.1-.4-.1-.4c.2 0 .2.4.5 0-.1-.4-.5.1-.4-.4.3-.2.5 0 .5-.5.1 0 .2.1.1.3 0-.4.4-.7.3-1 .2 0 .4-.2.5-.3.2-.1.3-.2.4 0 0-.1.3-.5.5-.6-.2.3.1.3.3.2.3 0 .6 0 .5.3.4-.4 1.3.1 2.1.3H37c.3.2.4.4.5.7.3-.3.9.1 1.3.2.1.7-.5.1-.7.5.2-.3.8.4.9.1.1.5.1.3 0 .7.4-.2.3.2.7.4.1.6-.3.3.1.8-.3.7-.6.3-.6.3zm3.6 3.3h-.3c.1-.1.2-.1.3 0zm1.2.3c-.1-.1-.3-.1-.5-.2 0-.1.1-.2.2-.1-.1 0 .2.1.3.3zm-2.8-2.3c.3-.1.4 0 .4 0-.1 0-.3 0-.5.1l.1-.1zM40.8 38.3c-.1 0-.1 0 0 0-.1 0 0 0 0 0h.1c-.1-.1-.1-.1-.1 0zM23.9 41.6zM46.4 41.7l.1-.1h-.1zM30.1 37.5s.1 0 .1.1c0-.1-.1-.1-.1-.1zM33.4 37.3l.4.1c-.2-.1-.3-.1-.4-.1zM35.6 38c.1 0 .1-.1 0 0zM37.3 38.7s-.1 0 0 0c-.3 0-.2 0 0 0zM35.9 47.3l.3-.3c-.3 0-.4.1-.3.3zM27.8 43v.1zM36.6 46.7c-.2.1-.3.2-.5.3.2-.1.4-.2.5-.3zM36.6 46.2l-.1.1.1-.1zM36.5 46.3l-.1.1c.1 0 .1-.1.1-.1zM36.3 46.6l.2-.2c-.1.1-.2.1-.2.2zM38.3 43.8c0-.1 0-.1 0 0zM38.5 42.8c0 .2-.3.5-.3.8h.1c-.2-.1.4-.5.2-.8zM38.3 38.5s.2.2.3.4l.2.4c0-.2 0-.5.3-.1-.2-.6-.2-.5-.3-.4-.1.1-.1.1-.5-.3zM35.9 36.6c.5.2.1-.1.1-.2-.3-.1-.4-.1-.1.2zM26.9 47.4l-.2.2c.3.2.1-.1.2-.2zM30.9 47.8l-.3-.2-.2.2c0-.1.5 0 .5 0zM33.1 49.7h-.2s.2 0 .4-.1c.2 0 .3-.1.3-.1l-.5.2zM25.5 46.8l.2-.3c-.1-.2-.5-.1-.2.3zM39.9 45.8c.2 0 .6-.2.7-.5-.2.2-.6.3-.7.5zM49 44.8l.1.3v-.6z"/></g>
          </pattern>


</svg>