<?xml version="1.0" encoding="utf-8"?>

<svg
   version           = "1.1" 
   xmlns             = "http://www.w3.org/2000/svg"
   xmlns:xlink       = "http://www.w3.org/1999/xlink"
   width             = "800px"
   height            = "800px"
   viewBox           = "0 0 300 300"
   enable-background = "new 0 0 300 300"
   xml:space         = "preserve"
>

<defs>
<path id="cat" 
d="M276 211.4c2.4-7.6 10.1-15.7 15.1-22.1 10.7-14 20.9-27.7 32.1-41.3 10.4-12.6 20.2-25.9 28.7-39.9 7.5-12.4 13.8-27.3 23.3-38.1 6.5 14.3 19.5 24 28.2 36.8 5.8 8.5 8.5 13.1 16.5 19.6 6.4 5.1 9.8 11.7 17.1 15.7 6.7 3.7 14.2 6.4 21.6 7.4 19.1 2.7 41.2.4 60.3.9 20.3.5 37.2 3.3 56.8 8 26.5 6.4 52.4-1 78.2-6.4 29.7-6.2 60.7-13 91.2-13.2-2.2 1.7-1.3 5.2-1.3 9 0 11.1-.2 15.9-5.2 26.1-7 14.2-14.2 28.5-22.8 41.9-8.1 12.5-20.1 24.7-25.8 38.4-5.5 13-2.3 30.8-2.3 44.6.1 39.9-8.5 95.2-48 116.4-18.4 9.8-41.9 17.7-61.9 23.6-24.5 7.2-50.4 13.1-75.3 18.2-40.7 8.3-85.4 11.3-126.7 7.1-22.8-2.3-46-14.5-65.6-26.4-28.8-17.4-47.9-53.5-55.7-85.3-8.4-34.3-.1-68.2 8.5-101 3.1-11.8 11.3-47.3 26.4-48.8M367.7 251.9c-7.1-8.8 14.2-30.4 22.3-35.8 10.8-7.2 26.5-14.6 39.6-16.1 9.1-1 12.3-.9 15.8 6.9 4.4 9.8 3.6 27.5-1.3 36.7-11.6 21.9-29.7 41.4-56.7 40.6-11.4-.3-16.4-9.3-18-20.6-2.1-14.9 7.6-19.2 13.1-31.5M546.2 281.6c-2.1-6.3-.4-12.2 3.5-17.6 4.1-5.6 10.4-10.6 14.8-16.4 7-9.4 14.3-20.1 24.5-26.3 7.7-4.7 19.4-9.4 28.7-7.6 12.2 2.4 13.1 20.6 12.2 31.8-1.9 23.1-19.6 51.7-38.6 64.9-5.6 3.9-19.7 11.3-27.5 6.9-6.2-3.5-8.7-19.4-10.7-26.1-4.1-13.5-2.9-25.1 3.9-37.7M371 224.6c-5.8 8.3-14.2 27.9-13.2 38.6 1.2 13.1 10.9 14.7 22.4 15.1 15.7.5 26-3.4 38.8-13 11.9-8.8 37.3-32.9 35.5-49.6-2.2-19.9-52.7-.7-61.1 8.7-8.9 10-25.3 48.2-4.2 55.4 19.1 6.5 13.2-23 11.6-31.9-2.7-15.7.4-18.5 14.1-26.1 11.9-6.5 19.3-11.5 33.2-10.4 9 16.6-13.2 50.2-23.7 61-9.7 10-32.7 20.8-45.4 10.6-15.9-12.9-2.8-31.6 6.5-42.8 2.2-2.7 46-44.3 47.5-27.2M557 255.2c10.5-18.6 25.3-35.7 47.8-38.9 9-1.3 13-.5 16.2 7.8 4.1 10.9 2.8 35.8-2.2 46.1-3.6 7.5-11.4 14-16 21.2-5.6 9-11 18-18.7 25.4-9.4 9-22.6 19.3-36.4 17.8-10.5-1.1-11.7-4-13.7-17.5-2.6-18.1 2.6-37.6 15.4-50.7 12.2-12.3 28-24.2 44.7-29.5 5.3-1.7 17.4-5.3 22.7-1.8 7.6 5 4.6 32.5 1.9 40.3-3 8.9-11.4 14.9-17.7 21.3-8 8.1-14.6 17.2-26.2 19.8-18.9 4.3-23.7-3.9-25.4-21.4-2.5-27 6.9-52.5 29.3-69.2 9.9-7.4 34.7-18.3 46.4-9.7 14.7 10.9 3 42.7-4.3 54.6-8.2 13.2-32.2 43.1-50.6 37.2"/>


<animateTransform
   attributeName = "transform"
   type          = "translate"
   from          = "10,10"
   to            = "10,10"
   values        = "10,10;10,8;8,10;10,10"
   begin         = "0s"
   repeatCount   = "indefinite"
   dur           = "14s"
   xlink:href    = "#shiftDown1"
/>

<animateTransform
   attributeName = "transform"
   type          = "skewY"
   from          = "0"
   to            = "0"
   values        = "0;20;0;-20;0"
   begin         = "0s"
   repeatCount   = "indefinite"
   dur           = "17s"
   xlink:href    = "#shiftDownAndOver"
/>


<animateTransform
   attributeName = "transform"
   type          = "rotate"
   from          = "180"
   to            = "180"
   values        = "180;180;170;180;180;190;180"
   begin         = "0s"
   repeatCount   = "indefinite"
   dur           = "8s"
   xlink:href    = "#shiftOrig"
/>



<pattern id="tilePattern" x="0.05" y="0.05" width=".1" height=".1">
  <rect id="shiftDownAndOver" x="0" y="0" width="200" height="200" fill="lightblue" />
  <rect id="shiftOrig" fill="blue" x="0" width="25" height="25" y="0">
    <animateTransform attributeName="transform" type="translate" from="0" to="-100" begin="0s" dur="20s" repeatCount="indefinite" />
  </rect>
  <rect id="shiftOrig" fill="darkblue" x="15" width="40" height="40" y="15"/>
</pattern>



<use xlink:href="#tilePatternUnit" />

</defs>
<g transform="translate(-100, 0) scale(0.5)">
  <use xlink:href="#cat" fill="url(#tilePattern)" />
</g>

</svg>
