<svg baseProfile="tiny" xmlns="http://www.w3.org/2000/svg" width="512" height="512" viewBox="0 0 512 512">
	<path fill="none" stroke="#674EFF" stroke-width="3" stroke-miterlimit="10" d="M90.3 141.9c5.6-16.1 21-46.2 42-38.5s16.8 46.9 32.9 43.4 21.7-41.3 32.9-41.3 21 42.7 21 62.2"/>
	<path fill="none" stroke="#674EFF" stroke-width="3" stroke-miterlimit="10" d="M43.5 128.2c5.6-16.1 41.5-22.6 62.5-14.9s43.1 37 59.2 33.5S207.8 114 219 114s56.3 20.6 56.3 40.2"/>
	<path fill="none" stroke="#1FA900" stroke-width="3" stroke-miterlimit="10" d="M21.1 280.4C44.2 197.2 35.8 37.7 154.6 56.6s87.4 176.2 11.9 209.1-43.4 261.5 108.7 149.7 68.2-78.3 147.9-181.8C502.8 130.1 477.6-40.5 386 17.5s-230 296.5-97.8 314 17.5 153.8 154.5 97.2 165-119.6 165-119.6"/></svg>