<?xml-stylesheet type="text/css" href="style.css" ?>    
<svg xmlns="http://www.w3.org/2000/svg" width="512" height="256" viewBox="0 0 512 256"><path d="M29 46.8c13.2-5.7 26.6-11 40.7-14.2 14.6-3.3 29.8-2.3 44.3-6.2 8.5-2.2 6.3-14.3-2-14.7-20.2-1.1-40.9-2.5-60.5 3.4-9.1 2.8-18.7 7.5-24.7 15.1-6.1 7.7-7.7 17.1-7.6 26.7.1 9.5 1.4 19 1.5 28.5.2 9.8 1.5 21.7 7.9 29.5 6.2 7.6 17 2.2 24.5.8 12.7-2.4 25.7-1.5 38.5-3 9.7-1.2 9.6-13.8 0-15-15.5-2-31.1-1.7-46.7-2.1-8.2-.2-17.3-2.9-25.3 0-18.6 6.9-3.1 37.3 1.6 48.9 4.5 11 5.5 23 6.8 34.7.7 6 1.5 12.1 1.6 18.2.1 5.3-.1 11.1 2.2 16 4.3 9.2 16.4 7.6 24.6 6.5 4.6-.6 9.1-1.6 13.6-2.6 5.6-1.1 8.7-1.2 15.3-1.4 16.4-.6 32.8.1 49.2.5 9.7.2 9.7-14.8 0-15-16.4-.4-32.8-.9-49.2-.5-10.5.3-20.2 2.4-30.6 4.1-3.3.6-7.9 1.1-10.3.6-1.5-.3-.2 0 .3.4s.7 1.5.3-.3c-.6-2.3-.3-5-.4-7.3-.2-13.6-2.5-27.5-4.4-41-1.4-9.5-5-17.7-8.5-26.5-1.7-4.3-3.2-8.6-4.5-13.1-.5-1.6-1-3.6-1.2-5.1-.1-.9-.2-1.8-.2-2.7 0-.5 0-1.1.1-1.6-.1.7 0 .7.1-.2l-.3.6c.7-1.1.3-.8-1.1.8-1.1.8.7-.1 1.1-.2 1.3-.3 3.8 0 5.5 0 4.3.2 8.7.8 13 1.1 15.1.8 30.3.1 45.4 1.8.6.1 1.2.2 1.8.2v-15c-10.2 1.2-20.6 1.1-30.9 2.1-4.4.4-9 .9-13.4 1.9-2.4.6-6.6 2.8-9 2.2 1.2.3 1.2 1.3.6-.7-.7-1.9-1.3-3.9-1.9-5.8-1.3-4.4-1.3-9.1-1.3-13.7-.1-8.5-1.1-16.9-1.5-25.4-.3-6.2 0-13.4 4-18.5 5.1-6.4 14-9.4 21.6-11.4 16.8-4.4 34.9-2.6 52.1-1.7-.7-4.9-1.3-9.8-2-14.7-15 4-30.9 3.2-46 6.5C49 21.6 35 27.6 21.2 33.6c-3.8 1.6-4.6 7.1-2.7 10.3 2.5 4 6.8 4.5 10.5 2.9zM137.7 155.3c13.6 1.2 25.5 13.8 34.9 22.6 12.4 11.7 23.1 25 35.9 36.4 7.2 6.4 17.9-4.2 10.6-10.6-13.9-12.3-25.5-26.9-39.2-39.5-12-11-25.2-22.4-42.1-23.9-9.8-.9-9.7 14.1-.1 15zM183.2 211.4c-.2-23.3 10-47.4 22.9-66.5 5.5-8-7.6-15.5-13-7.6-14.4 21.2-25.2 48.2-25 74 .1 9.8 15.1 9.8 15.1.1zM299.2 57.4c-11.4 5.2-19 18.3-25.4 28.6-7.6 12.3-12.9 26.1-16.9 39.9-3.2 11.2-6.1 22.9-7.7 34.4-1.5 11.1-1.8 23.8 6 32.8 8.3 9.7 21.3 10.2 33 8.1 10.5-1.9 22-6 31.3-11.2 26.5-14.9 9.3-47.7-2.8-66.4-10.3-15.9-24-29.7-40.1-39.7-8.2-5.1-15.8 7.9-7.6 13 21.2 13.2 37.4 33.9 46.8 57 2 4.9 3.8 10.5 2.6 15.8-1.1 4.9-6 7.3-10.1 9.4-8.9 4.3-20.3 8.1-30.2 8.5-24.6.8-12.1-35.9-8.9-49.2 3.2-13.4 7.8-26.5 14.2-38.7 3.1-5.9 6.9-11.2 10.7-16.7 3.4-5 7.2-9.8 12.7-12.4 8.7-4.3 1.1-17.2-7.6-13.2zM339.7 139.9c-.3 25 3.2 49.8 4.5 74.8.5 9.6 15.5 9.7 15 0-1.3-24.9-4.9-49.8-4.5-74.8.1-9.7-14.9-9.7-15 0zM355.1 163.9c-.5-3.6.8-5.9 3.8-9 4-4.2 9.1-7 14.2-9.6 4.7-2.4 9.7-4.2 14.8-5.6 3.4-.9 7.4-2.4 10.8-1 7.3 3.1 6.6 17.6 6.6 24.9.1 17.2.9 34.4 1.3 51.6.3 9.7 15.3 9.7 15 0-.5-19.3-.7-38.6-1.5-57.9-.5-13.2-3.6-29.3-18.4-33.2-12.4-3.3-27.7 3.8-38.3 9.4-10.9 5.7-25.1 16.5-23.3 30.5.5 4.1 3 7.5 7.5 7.5 3.7-.1 8-3.6 7.5-7.6zM433.3 168.1c-.3 1.5-.5 2.8 0 4.3 1.2 3.4 3.6 5.1 7.2 5.5 4.2.5 7.6-4 10.1-6.8 2.7-3.1 5.4-6.2 7.9-9.5 4.7-5.9 11-11.2 16.4-16.8 5.2-5.4 12-10.3 14.2-17.8 1-3.4-.7-6.6-3.4-8.5-8.6-5.9-22.9-8.1-32.6-3.9-10.7 4.6-12 16.9-12.3 27.1-.6 21.4-7.3 48.3 10.2 65 7 6.7 17.6-3.9 10.6-10.6-12.3-11.8-6.7-33.5-5.9-48.6.3-5.5-1.3-14.7 3-19 1.8-1.9 6.6-.9 8.8-.7 3.7.4 7.6 1.5 10.7 3.6-1.1-2.8-2.3-5.6-3.4-8.5-.6 2.2-2.8 3.7-4.4 5.2-2.5 2.3-4.8 4.9-7.2 7.3-5.1 5.3-11.5 10.4-15.8 16.4 1.7-2.4-.8 1-1.2 1.5-1.3 1.6-2.7 3.3-4.1 4.9-1.2 1.4-2.3 2.7-3.6 4l-1.5 1.5c-1.4 1.4 0 0 0 0 1.3-.3 2.5-.7 3.8-1h-.1c2.4 1.8 4.8 3.7 7.2 5.5v-.1 4-.2c1.5-9.3-13-13.3-14.6-3.8z"/></svg>